%TF.GenerationSoftware,KiCad,Pcbnew,7.0.10*%
%TF.CreationDate,2024-01-24T20:37:13+01:00*%
%TF.ProjectId,ThePreamp-Analogue,54686550-7265-4616-9d70-2d416e616c6f,rev?*%
%TF.SameCoordinates,Original*%
%TF.FileFunction,Copper,L1,Top*%
%TF.FilePolarity,Positive*%
%FSLAX46Y46*%
G04 Gerber Fmt 4.6, Leading zero omitted, Abs format (unit mm)*
G04 Created by KiCad (PCBNEW 7.0.10) date 2024-01-24 20:37:13*
%MOMM*%
%LPD*%
G01*
G04 APERTURE LIST*
G04 Aperture macros list*
%AMRoundRect*
0 Rectangle with rounded corners*
0 $1 Rounding radius*
0 $2 $3 $4 $5 $6 $7 $8 $9 X,Y pos of 4 corners*
0 Add a 4 corners polygon primitive as box body*
4,1,4,$2,$3,$4,$5,$6,$7,$8,$9,$2,$3,0*
0 Add four circle primitives for the rounded corners*
1,1,$1+$1,$2,$3*
1,1,$1+$1,$4,$5*
1,1,$1+$1,$6,$7*
1,1,$1+$1,$8,$9*
0 Add four rect primitives between the rounded corners*
20,1,$1+$1,$2,$3,$4,$5,0*
20,1,$1+$1,$4,$5,$6,$7,0*
20,1,$1+$1,$6,$7,$8,$9,0*
20,1,$1+$1,$8,$9,$2,$3,0*%
G04 Aperture macros list end*
%ADD10C,0.300000*%
%TA.AperFunction,NonConductor*%
%ADD11C,0.300000*%
%TD*%
%TA.AperFunction,ComponentPad*%
%ADD12O,2.000000X3.000000*%
%TD*%
%TA.AperFunction,ComponentPad*%
%ADD13C,4.000000*%
%TD*%
%TA.AperFunction,ComponentPad*%
%ADD14R,1.350000X1.350000*%
%TD*%
%TA.AperFunction,ComponentPad*%
%ADD15C,1.350000*%
%TD*%
%TA.AperFunction,ComponentPad*%
%ADD16RoundRect,0.250000X-0.600000X-0.725000X0.600000X-0.725000X0.600000X0.725000X-0.600000X0.725000X0*%
%TD*%
%TA.AperFunction,ComponentPad*%
%ADD17O,1.700000X1.950000*%
%TD*%
%TA.AperFunction,ComponentPad*%
%ADD18C,1.600000*%
%TD*%
%TA.AperFunction,ComponentPad*%
%ADD19O,1.600000X1.600000*%
%TD*%
%TA.AperFunction,ComponentPad*%
%ADD20RoundRect,0.250000X0.600000X0.750000X-0.600000X0.750000X-0.600000X-0.750000X0.600000X-0.750000X0*%
%TD*%
%TA.AperFunction,ComponentPad*%
%ADD21O,1.700000X2.000000*%
%TD*%
%TA.AperFunction,ComponentPad*%
%ADD22R,1.700000X1.700000*%
%TD*%
%TA.AperFunction,ComponentPad*%
%ADD23O,1.700000X1.700000*%
%TD*%
%TA.AperFunction,ViaPad*%
%ADD24C,1.000000*%
%TD*%
%TA.AperFunction,Conductor*%
%ADD25C,0.600000*%
%TD*%
G04 APERTURE END LIST*
D10*
D11*
X67928572Y76229172D02*
X67928572Y77729172D01*
X67928572Y77729172D02*
X68500001Y77729172D01*
X68500001Y77729172D02*
X68642858Y77657743D01*
X68642858Y77657743D02*
X68714287Y77586315D01*
X68714287Y77586315D02*
X68785715Y77443458D01*
X68785715Y77443458D02*
X68785715Y77229172D01*
X68785715Y77229172D02*
X68714287Y77086315D01*
X68714287Y77086315D02*
X68642858Y77014886D01*
X68642858Y77014886D02*
X68500001Y76943458D01*
X68500001Y76943458D02*
X67928572Y76943458D01*
X69428572Y76229172D02*
X69428572Y77229172D01*
X69428572Y76943458D02*
X69500001Y77086315D01*
X69500001Y77086315D02*
X69571430Y77157743D01*
X69571430Y77157743D02*
X69714287Y77229172D01*
X69714287Y77229172D02*
X69857144Y77229172D01*
X70928572Y76300600D02*
X70785715Y76229172D01*
X70785715Y76229172D02*
X70500001Y76229172D01*
X70500001Y76229172D02*
X70357143Y76300600D01*
X70357143Y76300600D02*
X70285715Y76443458D01*
X70285715Y76443458D02*
X70285715Y77014886D01*
X70285715Y77014886D02*
X70357143Y77157743D01*
X70357143Y77157743D02*
X70500001Y77229172D01*
X70500001Y77229172D02*
X70785715Y77229172D01*
X70785715Y77229172D02*
X70928572Y77157743D01*
X70928572Y77157743D02*
X71000001Y77014886D01*
X71000001Y77014886D02*
X71000001Y76872029D01*
X71000001Y76872029D02*
X70285715Y76729172D01*
X72285715Y76229172D02*
X72285715Y77014886D01*
X72285715Y77014886D02*
X72214286Y77157743D01*
X72214286Y77157743D02*
X72071429Y77229172D01*
X72071429Y77229172D02*
X71785715Y77229172D01*
X71785715Y77229172D02*
X71642857Y77157743D01*
X72285715Y76300600D02*
X72142857Y76229172D01*
X72142857Y76229172D02*
X71785715Y76229172D01*
X71785715Y76229172D02*
X71642857Y76300600D01*
X71642857Y76300600D02*
X71571429Y76443458D01*
X71571429Y76443458D02*
X71571429Y76586315D01*
X71571429Y76586315D02*
X71642857Y76729172D01*
X71642857Y76729172D02*
X71785715Y76800600D01*
X71785715Y76800600D02*
X72142857Y76800600D01*
X72142857Y76800600D02*
X72285715Y76872029D01*
X73000000Y76229172D02*
X73000000Y77229172D01*
X73000000Y77086315D02*
X73071429Y77157743D01*
X73071429Y77157743D02*
X73214286Y77229172D01*
X73214286Y77229172D02*
X73428572Y77229172D01*
X73428572Y77229172D02*
X73571429Y77157743D01*
X73571429Y77157743D02*
X73642858Y77014886D01*
X73642858Y77014886D02*
X73642858Y76229172D01*
X73642858Y77014886D02*
X73714286Y77157743D01*
X73714286Y77157743D02*
X73857143Y77229172D01*
X73857143Y77229172D02*
X74071429Y77229172D01*
X74071429Y77229172D02*
X74214286Y77157743D01*
X74214286Y77157743D02*
X74285715Y77014886D01*
X74285715Y77014886D02*
X74285715Y76229172D01*
X75000000Y77229172D02*
X75000000Y75729172D01*
X75000000Y77157743D02*
X75142858Y77229172D01*
X75142858Y77229172D02*
X75428572Y77229172D01*
X75428572Y77229172D02*
X75571429Y77157743D01*
X75571429Y77157743D02*
X75642858Y77086315D01*
X75642858Y77086315D02*
X75714286Y76943458D01*
X75714286Y76943458D02*
X75714286Y76514886D01*
X75714286Y76514886D02*
X75642858Y76372029D01*
X75642858Y76372029D02*
X75571429Y76300600D01*
X75571429Y76300600D02*
X75428572Y76229172D01*
X75428572Y76229172D02*
X75142858Y76229172D01*
X75142858Y76229172D02*
X75000000Y76300600D01*
X77500000Y77229172D02*
X77500000Y75729172D01*
X77500000Y77157743D02*
X77642858Y77229172D01*
X77642858Y77229172D02*
X77928572Y77229172D01*
X77928572Y77229172D02*
X78071429Y77157743D01*
X78071429Y77157743D02*
X78142858Y77086315D01*
X78142858Y77086315D02*
X78214286Y76943458D01*
X78214286Y76943458D02*
X78214286Y76514886D01*
X78214286Y76514886D02*
X78142858Y76372029D01*
X78142858Y76372029D02*
X78071429Y76300600D01*
X78071429Y76300600D02*
X77928572Y76229172D01*
X77928572Y76229172D02*
X77642858Y76229172D01*
X77642858Y76229172D02*
X77500000Y76300600D01*
X79500001Y76300600D02*
X79357143Y76229172D01*
X79357143Y76229172D02*
X79071429Y76229172D01*
X79071429Y76229172D02*
X78928572Y76300600D01*
X78928572Y76300600D02*
X78857143Y76372029D01*
X78857143Y76372029D02*
X78785715Y76514886D01*
X78785715Y76514886D02*
X78785715Y76943458D01*
X78785715Y76943458D02*
X78857143Y77086315D01*
X78857143Y77086315D02*
X78928572Y77157743D01*
X78928572Y77157743D02*
X79071429Y77229172D01*
X79071429Y77229172D02*
X79357143Y77229172D01*
X79357143Y77229172D02*
X79500001Y77157743D01*
X80142857Y76229172D02*
X80142857Y77729172D01*
X80142857Y77157743D02*
X80285715Y77229172D01*
X80285715Y77229172D02*
X80571429Y77229172D01*
X80571429Y77229172D02*
X80714286Y77157743D01*
X80714286Y77157743D02*
X80785715Y77086315D01*
X80785715Y77086315D02*
X80857143Y76943458D01*
X80857143Y76943458D02*
X80857143Y76514886D01*
X80857143Y76514886D02*
X80785715Y76372029D01*
X80785715Y76372029D02*
X80714286Y76300600D01*
X80714286Y76300600D02*
X80571429Y76229172D01*
X80571429Y76229172D02*
X80285715Y76229172D01*
X80285715Y76229172D02*
X80142857Y76300600D01*
X83285715Y76229172D02*
X83285715Y77729172D01*
X83285715Y76300600D02*
X83142857Y76229172D01*
X83142857Y76229172D02*
X82857143Y76229172D01*
X82857143Y76229172D02*
X82714286Y76300600D01*
X82714286Y76300600D02*
X82642857Y76372029D01*
X82642857Y76372029D02*
X82571429Y76514886D01*
X82571429Y76514886D02*
X82571429Y76943458D01*
X82571429Y76943458D02*
X82642857Y77086315D01*
X82642857Y77086315D02*
X82714286Y77157743D01*
X82714286Y77157743D02*
X82857143Y77229172D01*
X82857143Y77229172D02*
X83142857Y77229172D01*
X83142857Y77229172D02*
X83285715Y77157743D01*
X84000000Y76229172D02*
X84000000Y77229172D01*
X84000000Y77729172D02*
X83928572Y77657743D01*
X83928572Y77657743D02*
X84000000Y77586315D01*
X84000000Y77586315D02*
X84071429Y77657743D01*
X84071429Y77657743D02*
X84000000Y77729172D01*
X84000000Y77729172D02*
X84000000Y77586315D01*
X84714286Y76229172D02*
X84714286Y77229172D01*
X84714286Y77086315D02*
X84785715Y77157743D01*
X84785715Y77157743D02*
X84928572Y77229172D01*
X84928572Y77229172D02*
X85142858Y77229172D01*
X85142858Y77229172D02*
X85285715Y77157743D01*
X85285715Y77157743D02*
X85357144Y77014886D01*
X85357144Y77014886D02*
X85357144Y76229172D01*
X85357144Y77014886D02*
X85428572Y77157743D01*
X85428572Y77157743D02*
X85571429Y77229172D01*
X85571429Y77229172D02*
X85785715Y77229172D01*
X85785715Y77229172D02*
X85928572Y77157743D01*
X85928572Y77157743D02*
X86000001Y77014886D01*
X86000001Y77014886D02*
X86000001Y76229172D01*
X88642858Y76229172D02*
X87785715Y76229172D01*
X88214286Y76229172D02*
X88214286Y77729172D01*
X88214286Y77729172D02*
X88071429Y77514886D01*
X88071429Y77514886D02*
X87928572Y77372029D01*
X87928572Y77372029D02*
X87785715Y77300600D01*
X89928572Y77229172D02*
X89928572Y76229172D01*
X89571429Y77800600D02*
X89214286Y76729172D01*
X89214286Y76729172D02*
X90142857Y76729172D01*
X91000000Y77729172D02*
X91142857Y77729172D01*
X91142857Y77729172D02*
X91285714Y77657743D01*
X91285714Y77657743D02*
X91357143Y77586315D01*
X91357143Y77586315D02*
X91428571Y77443458D01*
X91428571Y77443458D02*
X91500000Y77157743D01*
X91500000Y77157743D02*
X91500000Y76800600D01*
X91500000Y76800600D02*
X91428571Y76514886D01*
X91428571Y76514886D02*
X91357143Y76372029D01*
X91357143Y76372029D02*
X91285714Y76300600D01*
X91285714Y76300600D02*
X91142857Y76229172D01*
X91142857Y76229172D02*
X91000000Y76229172D01*
X91000000Y76229172D02*
X90857143Y76300600D01*
X90857143Y76300600D02*
X90785714Y76372029D01*
X90785714Y76372029D02*
X90714285Y76514886D01*
X90714285Y76514886D02*
X90642857Y76800600D01*
X90642857Y76800600D02*
X90642857Y77157743D01*
X90642857Y77157743D02*
X90714285Y77443458D01*
X90714285Y77443458D02*
X90785714Y77586315D01*
X90785714Y77586315D02*
X90857143Y77657743D01*
X90857143Y77657743D02*
X91000000Y77729172D01*
X93142856Y76229172D02*
X93928571Y77229172D01*
X93142856Y77229172D02*
X93928571Y76229172D01*
X96285714Y77729172D02*
X95999999Y77729172D01*
X95999999Y77729172D02*
X95857142Y77657743D01*
X95857142Y77657743D02*
X95785714Y77586315D01*
X95785714Y77586315D02*
X95642856Y77372029D01*
X95642856Y77372029D02*
X95571428Y77086315D01*
X95571428Y77086315D02*
X95571428Y76514886D01*
X95571428Y76514886D02*
X95642856Y76372029D01*
X95642856Y76372029D02*
X95714285Y76300600D01*
X95714285Y76300600D02*
X95857142Y76229172D01*
X95857142Y76229172D02*
X96142856Y76229172D01*
X96142856Y76229172D02*
X96285714Y76300600D01*
X96285714Y76300600D02*
X96357142Y76372029D01*
X96357142Y76372029D02*
X96428571Y76514886D01*
X96428571Y76514886D02*
X96428571Y76872029D01*
X96428571Y76872029D02*
X96357142Y77014886D01*
X96357142Y77014886D02*
X96285714Y77086315D01*
X96285714Y77086315D02*
X96142856Y77157743D01*
X96142856Y77157743D02*
X95857142Y77157743D01*
X95857142Y77157743D02*
X95714285Y77086315D01*
X95714285Y77086315D02*
X95642856Y77014886D01*
X95642856Y77014886D02*
X95571428Y76872029D01*
X97785713Y77729172D02*
X97071427Y77729172D01*
X97071427Y77729172D02*
X96999999Y77014886D01*
X96999999Y77014886D02*
X97071427Y77086315D01*
X97071427Y77086315D02*
X97214285Y77157743D01*
X97214285Y77157743D02*
X97571427Y77157743D01*
X97571427Y77157743D02*
X97714285Y77086315D01*
X97714285Y77086315D02*
X97785713Y77014886D01*
X97785713Y77014886D02*
X97857142Y76872029D01*
X97857142Y76872029D02*
X97857142Y76514886D01*
X97857142Y76514886D02*
X97785713Y76372029D01*
X97785713Y76372029D02*
X97714285Y76300600D01*
X97714285Y76300600D02*
X97571427Y76229172D01*
X97571427Y76229172D02*
X97214285Y76229172D01*
X97214285Y76229172D02*
X97071427Y76300600D01*
X97071427Y76300600D02*
X96999999Y76372029D01*
X99642855Y76229172D02*
X99642855Y77229172D01*
X99642855Y77086315D02*
X99714284Y77157743D01*
X99714284Y77157743D02*
X99857141Y77229172D01*
X99857141Y77229172D02*
X100071427Y77229172D01*
X100071427Y77229172D02*
X100214284Y77157743D01*
X100214284Y77157743D02*
X100285713Y77014886D01*
X100285713Y77014886D02*
X100285713Y76229172D01*
X100285713Y77014886D02*
X100357141Y77157743D01*
X100357141Y77157743D02*
X100499998Y77229172D01*
X100499998Y77229172D02*
X100714284Y77229172D01*
X100714284Y77229172D02*
X100857141Y77157743D01*
X100857141Y77157743D02*
X100928570Y77014886D01*
X100928570Y77014886D02*
X100928570Y76229172D01*
X101642855Y76229172D02*
X101642855Y77229172D01*
X101642855Y77086315D02*
X101714284Y77157743D01*
X101714284Y77157743D02*
X101857141Y77229172D01*
X101857141Y77229172D02*
X102071427Y77229172D01*
X102071427Y77229172D02*
X102214284Y77157743D01*
X102214284Y77157743D02*
X102285713Y77014886D01*
X102285713Y77014886D02*
X102285713Y76229172D01*
X102285713Y77014886D02*
X102357141Y77157743D01*
X102357141Y77157743D02*
X102499998Y77229172D01*
X102499998Y77229172D02*
X102714284Y77229172D01*
X102714284Y77229172D02*
X102857141Y77157743D01*
X102857141Y77157743D02*
X102928570Y77014886D01*
X102928570Y77014886D02*
X102928570Y76229172D01*
X62571428Y73814172D02*
X62571428Y75314172D01*
X62571428Y75314172D02*
X63071428Y74242743D01*
X63071428Y74242743D02*
X63571428Y75314172D01*
X63571428Y75314172D02*
X63571428Y73814172D01*
X64500000Y73814172D02*
X64357143Y73885600D01*
X64357143Y73885600D02*
X64285714Y73957029D01*
X64285714Y73957029D02*
X64214286Y74099886D01*
X64214286Y74099886D02*
X64214286Y74528458D01*
X64214286Y74528458D02*
X64285714Y74671315D01*
X64285714Y74671315D02*
X64357143Y74742743D01*
X64357143Y74742743D02*
X64500000Y74814172D01*
X64500000Y74814172D02*
X64714286Y74814172D01*
X64714286Y74814172D02*
X64857143Y74742743D01*
X64857143Y74742743D02*
X64928572Y74671315D01*
X64928572Y74671315D02*
X65000000Y74528458D01*
X65000000Y74528458D02*
X65000000Y74099886D01*
X65000000Y74099886D02*
X64928572Y73957029D01*
X64928572Y73957029D02*
X64857143Y73885600D01*
X64857143Y73885600D02*
X64714286Y73814172D01*
X64714286Y73814172D02*
X64500000Y73814172D01*
X66285715Y74814172D02*
X66285715Y73814172D01*
X65642857Y74814172D02*
X65642857Y74028458D01*
X65642857Y74028458D02*
X65714286Y73885600D01*
X65714286Y73885600D02*
X65857143Y73814172D01*
X65857143Y73814172D02*
X66071429Y73814172D01*
X66071429Y73814172D02*
X66214286Y73885600D01*
X66214286Y73885600D02*
X66285715Y73957029D01*
X67000000Y74814172D02*
X67000000Y73814172D01*
X67000000Y74671315D02*
X67071429Y74742743D01*
X67071429Y74742743D02*
X67214286Y74814172D01*
X67214286Y74814172D02*
X67428572Y74814172D01*
X67428572Y74814172D02*
X67571429Y74742743D01*
X67571429Y74742743D02*
X67642858Y74599886D01*
X67642858Y74599886D02*
X67642858Y73814172D01*
X68142858Y74814172D02*
X68714286Y74814172D01*
X68357143Y75314172D02*
X68357143Y74028458D01*
X68357143Y74028458D02*
X68428572Y73885600D01*
X68428572Y73885600D02*
X68571429Y73814172D01*
X68571429Y73814172D02*
X68714286Y73814172D01*
X69214286Y73814172D02*
X69214286Y74814172D01*
X69214286Y75314172D02*
X69142858Y75242743D01*
X69142858Y75242743D02*
X69214286Y75171315D01*
X69214286Y75171315D02*
X69285715Y75242743D01*
X69285715Y75242743D02*
X69214286Y75314172D01*
X69214286Y75314172D02*
X69214286Y75171315D01*
X69928572Y74814172D02*
X69928572Y73814172D01*
X69928572Y74671315D02*
X70000001Y74742743D01*
X70000001Y74742743D02*
X70142858Y74814172D01*
X70142858Y74814172D02*
X70357144Y74814172D01*
X70357144Y74814172D02*
X70500001Y74742743D01*
X70500001Y74742743D02*
X70571430Y74599886D01*
X70571430Y74599886D02*
X70571430Y73814172D01*
X71928573Y74814172D02*
X71928573Y73599886D01*
X71928573Y73599886D02*
X71857144Y73457029D01*
X71857144Y73457029D02*
X71785715Y73385600D01*
X71785715Y73385600D02*
X71642858Y73314172D01*
X71642858Y73314172D02*
X71428573Y73314172D01*
X71428573Y73314172D02*
X71285715Y73385600D01*
X71928573Y73885600D02*
X71785715Y73814172D01*
X71785715Y73814172D02*
X71500001Y73814172D01*
X71500001Y73814172D02*
X71357144Y73885600D01*
X71357144Y73885600D02*
X71285715Y73957029D01*
X71285715Y73957029D02*
X71214287Y74099886D01*
X71214287Y74099886D02*
X71214287Y74528458D01*
X71214287Y74528458D02*
X71285715Y74671315D01*
X71285715Y74671315D02*
X71357144Y74742743D01*
X71357144Y74742743D02*
X71500001Y74814172D01*
X71500001Y74814172D02*
X71785715Y74814172D01*
X71785715Y74814172D02*
X71928573Y74742743D01*
X73785715Y73814172D02*
X73785715Y75314172D01*
X74428573Y73814172D02*
X74428573Y74599886D01*
X74428573Y74599886D02*
X74357144Y74742743D01*
X74357144Y74742743D02*
X74214287Y74814172D01*
X74214287Y74814172D02*
X74000001Y74814172D01*
X74000001Y74814172D02*
X73857144Y74742743D01*
X73857144Y74742743D02*
X73785715Y74671315D01*
X75357144Y73814172D02*
X75214287Y73885600D01*
X75214287Y73885600D02*
X75142858Y73957029D01*
X75142858Y73957029D02*
X75071430Y74099886D01*
X75071430Y74099886D02*
X75071430Y74528458D01*
X75071430Y74528458D02*
X75142858Y74671315D01*
X75142858Y74671315D02*
X75214287Y74742743D01*
X75214287Y74742743D02*
X75357144Y74814172D01*
X75357144Y74814172D02*
X75571430Y74814172D01*
X75571430Y74814172D02*
X75714287Y74742743D01*
X75714287Y74742743D02*
X75785716Y74671315D01*
X75785716Y74671315D02*
X75857144Y74528458D01*
X75857144Y74528458D02*
X75857144Y74099886D01*
X75857144Y74099886D02*
X75785716Y73957029D01*
X75785716Y73957029D02*
X75714287Y73885600D01*
X75714287Y73885600D02*
X75571430Y73814172D01*
X75571430Y73814172D02*
X75357144Y73814172D01*
X76714287Y73814172D02*
X76571430Y73885600D01*
X76571430Y73885600D02*
X76500001Y74028458D01*
X76500001Y74028458D02*
X76500001Y75314172D01*
X77857144Y73885600D02*
X77714287Y73814172D01*
X77714287Y73814172D02*
X77428573Y73814172D01*
X77428573Y73814172D02*
X77285715Y73885600D01*
X77285715Y73885600D02*
X77214287Y74028458D01*
X77214287Y74028458D02*
X77214287Y74599886D01*
X77214287Y74599886D02*
X77285715Y74742743D01*
X77285715Y74742743D02*
X77428573Y74814172D01*
X77428573Y74814172D02*
X77714287Y74814172D01*
X77714287Y74814172D02*
X77857144Y74742743D01*
X77857144Y74742743D02*
X77928573Y74599886D01*
X77928573Y74599886D02*
X77928573Y74457029D01*
X77928573Y74457029D02*
X77214287Y74314172D01*
X78500001Y73885600D02*
X78642858Y73814172D01*
X78642858Y73814172D02*
X78928572Y73814172D01*
X78928572Y73814172D02*
X79071429Y73885600D01*
X79071429Y73885600D02*
X79142858Y74028458D01*
X79142858Y74028458D02*
X79142858Y74099886D01*
X79142858Y74099886D02*
X79071429Y74242743D01*
X79071429Y74242743D02*
X78928572Y74314172D01*
X78928572Y74314172D02*
X78714287Y74314172D01*
X78714287Y74314172D02*
X78571429Y74385600D01*
X78571429Y74385600D02*
X78500001Y74528458D01*
X78500001Y74528458D02*
X78500001Y74599886D01*
X78500001Y74599886D02*
X78571429Y74742743D01*
X78571429Y74742743D02*
X78714287Y74814172D01*
X78714287Y74814172D02*
X78928572Y74814172D01*
X78928572Y74814172D02*
X79071429Y74742743D01*
X80785715Y75314172D02*
X81714287Y75314172D01*
X81714287Y75314172D02*
X81214287Y74742743D01*
X81214287Y74742743D02*
X81428572Y74742743D01*
X81428572Y74742743D02*
X81571430Y74671315D01*
X81571430Y74671315D02*
X81642858Y74599886D01*
X81642858Y74599886D02*
X81714287Y74457029D01*
X81714287Y74457029D02*
X81714287Y74099886D01*
X81714287Y74099886D02*
X81642858Y73957029D01*
X81642858Y73957029D02*
X81571430Y73885600D01*
X81571430Y73885600D02*
X81428572Y73814172D01*
X81428572Y73814172D02*
X81000001Y73814172D01*
X81000001Y73814172D02*
X80857144Y73885600D01*
X80857144Y73885600D02*
X80785715Y73957029D01*
X82357143Y73957029D02*
X82428572Y73885600D01*
X82428572Y73885600D02*
X82357143Y73814172D01*
X82357143Y73814172D02*
X82285715Y73885600D01*
X82285715Y73885600D02*
X82357143Y73957029D01*
X82357143Y73957029D02*
X82357143Y73814172D01*
X83000001Y75171315D02*
X83071429Y75242743D01*
X83071429Y75242743D02*
X83214287Y75314172D01*
X83214287Y75314172D02*
X83571429Y75314172D01*
X83571429Y75314172D02*
X83714287Y75242743D01*
X83714287Y75242743D02*
X83785715Y75171315D01*
X83785715Y75171315D02*
X83857144Y75028458D01*
X83857144Y75028458D02*
X83857144Y74885600D01*
X83857144Y74885600D02*
X83785715Y74671315D01*
X83785715Y74671315D02*
X82928572Y73814172D01*
X82928572Y73814172D02*
X83857144Y73814172D01*
X85642857Y73814172D02*
X85642857Y74814172D01*
X85642857Y74671315D02*
X85714286Y74742743D01*
X85714286Y74742743D02*
X85857143Y74814172D01*
X85857143Y74814172D02*
X86071429Y74814172D01*
X86071429Y74814172D02*
X86214286Y74742743D01*
X86214286Y74742743D02*
X86285715Y74599886D01*
X86285715Y74599886D02*
X86285715Y73814172D01*
X86285715Y74599886D02*
X86357143Y74742743D01*
X86357143Y74742743D02*
X86500000Y74814172D01*
X86500000Y74814172D02*
X86714286Y74814172D01*
X86714286Y74814172D02*
X86857143Y74742743D01*
X86857143Y74742743D02*
X86928572Y74599886D01*
X86928572Y74599886D02*
X86928572Y73814172D01*
X87642857Y73814172D02*
X87642857Y74814172D01*
X87642857Y74671315D02*
X87714286Y74742743D01*
X87714286Y74742743D02*
X87857143Y74814172D01*
X87857143Y74814172D02*
X88071429Y74814172D01*
X88071429Y74814172D02*
X88214286Y74742743D01*
X88214286Y74742743D02*
X88285715Y74599886D01*
X88285715Y74599886D02*
X88285715Y73814172D01*
X88285715Y74599886D02*
X88357143Y74742743D01*
X88357143Y74742743D02*
X88500000Y74814172D01*
X88500000Y74814172D02*
X88714286Y74814172D01*
X88714286Y74814172D02*
X88857143Y74742743D01*
X88857143Y74742743D02*
X88928572Y74599886D01*
X88928572Y74599886D02*
X88928572Y73814172D01*
X91500000Y75314172D02*
X90785714Y75314172D01*
X90785714Y75314172D02*
X90714286Y74599886D01*
X90714286Y74599886D02*
X90785714Y74671315D01*
X90785714Y74671315D02*
X90928572Y74742743D01*
X90928572Y74742743D02*
X91285714Y74742743D01*
X91285714Y74742743D02*
X91428572Y74671315D01*
X91428572Y74671315D02*
X91500000Y74599886D01*
X91500000Y74599886D02*
X91571429Y74457029D01*
X91571429Y74457029D02*
X91571429Y74099886D01*
X91571429Y74099886D02*
X91500000Y73957029D01*
X91500000Y73957029D02*
X91428572Y73885600D01*
X91428572Y73885600D02*
X91285714Y73814172D01*
X91285714Y73814172D02*
X90928572Y73814172D01*
X90928572Y73814172D02*
X90785714Y73885600D01*
X90785714Y73885600D02*
X90714286Y73957029D01*
X92214285Y73814172D02*
X92214285Y74814172D01*
X92214285Y74671315D02*
X92285714Y74742743D01*
X92285714Y74742743D02*
X92428571Y74814172D01*
X92428571Y74814172D02*
X92642857Y74814172D01*
X92642857Y74814172D02*
X92785714Y74742743D01*
X92785714Y74742743D02*
X92857143Y74599886D01*
X92857143Y74599886D02*
X92857143Y73814172D01*
X92857143Y74599886D02*
X92928571Y74742743D01*
X92928571Y74742743D02*
X93071428Y74814172D01*
X93071428Y74814172D02*
X93285714Y74814172D01*
X93285714Y74814172D02*
X93428571Y74742743D01*
X93428571Y74742743D02*
X93500000Y74599886D01*
X93500000Y74599886D02*
X93500000Y73814172D01*
X94214285Y73814172D02*
X94214285Y74814172D01*
X94214285Y74671315D02*
X94285714Y74742743D01*
X94285714Y74742743D02*
X94428571Y74814172D01*
X94428571Y74814172D02*
X94642857Y74814172D01*
X94642857Y74814172D02*
X94785714Y74742743D01*
X94785714Y74742743D02*
X94857143Y74599886D01*
X94857143Y74599886D02*
X94857143Y73814172D01*
X94857143Y74599886D02*
X94928571Y74742743D01*
X94928571Y74742743D02*
X95071428Y74814172D01*
X95071428Y74814172D02*
X95285714Y74814172D01*
X95285714Y74814172D02*
X95428571Y74742743D01*
X95428571Y74742743D02*
X95500000Y74599886D01*
X95500000Y74599886D02*
X95500000Y73814172D01*
X97142857Y74814172D02*
X97714285Y74814172D01*
X97357142Y73814172D02*
X97357142Y75099886D01*
X97357142Y75099886D02*
X97428571Y75242743D01*
X97428571Y75242743D02*
X97571428Y75314172D01*
X97571428Y75314172D02*
X97714285Y75314172D01*
X98214285Y73814172D02*
X98214285Y74814172D01*
X98214285Y74528458D02*
X98285714Y74671315D01*
X98285714Y74671315D02*
X98357143Y74742743D01*
X98357143Y74742743D02*
X98500000Y74814172D01*
X98500000Y74814172D02*
X98642857Y74814172D01*
X99357142Y73814172D02*
X99214285Y73885600D01*
X99214285Y73885600D02*
X99142856Y73957029D01*
X99142856Y73957029D02*
X99071428Y74099886D01*
X99071428Y74099886D02*
X99071428Y74528458D01*
X99071428Y74528458D02*
X99142856Y74671315D01*
X99142856Y74671315D02*
X99214285Y74742743D01*
X99214285Y74742743D02*
X99357142Y74814172D01*
X99357142Y74814172D02*
X99571428Y74814172D01*
X99571428Y74814172D02*
X99714285Y74742743D01*
X99714285Y74742743D02*
X99785714Y74671315D01*
X99785714Y74671315D02*
X99857142Y74528458D01*
X99857142Y74528458D02*
X99857142Y74099886D01*
X99857142Y74099886D02*
X99785714Y73957029D01*
X99785714Y73957029D02*
X99714285Y73885600D01*
X99714285Y73885600D02*
X99571428Y73814172D01*
X99571428Y73814172D02*
X99357142Y73814172D01*
X100499999Y73814172D02*
X100499999Y74814172D01*
X100499999Y74671315D02*
X100571428Y74742743D01*
X100571428Y74742743D02*
X100714285Y74814172D01*
X100714285Y74814172D02*
X100928571Y74814172D01*
X100928571Y74814172D02*
X101071428Y74742743D01*
X101071428Y74742743D02*
X101142857Y74599886D01*
X101142857Y74599886D02*
X101142857Y73814172D01*
X101142857Y74599886D02*
X101214285Y74742743D01*
X101214285Y74742743D02*
X101357142Y74814172D01*
X101357142Y74814172D02*
X101571428Y74814172D01*
X101571428Y74814172D02*
X101714285Y74742743D01*
X101714285Y74742743D02*
X101785714Y74599886D01*
X101785714Y74599886D02*
X101785714Y73814172D01*
X104214285Y73885600D02*
X104071428Y73814172D01*
X104071428Y73814172D02*
X103785714Y73814172D01*
X103785714Y73814172D02*
X103642856Y73885600D01*
X103642856Y73885600D02*
X103571428Y74028458D01*
X103571428Y74028458D02*
X103571428Y74599886D01*
X103571428Y74599886D02*
X103642856Y74742743D01*
X103642856Y74742743D02*
X103785714Y74814172D01*
X103785714Y74814172D02*
X104071428Y74814172D01*
X104071428Y74814172D02*
X104214285Y74742743D01*
X104214285Y74742743D02*
X104285714Y74599886D01*
X104285714Y74599886D02*
X104285714Y74457029D01*
X104285714Y74457029D02*
X103571428Y74314172D01*
X105571428Y73814172D02*
X105571428Y75314172D01*
X105571428Y73885600D02*
X105428570Y73814172D01*
X105428570Y73814172D02*
X105142856Y73814172D01*
X105142856Y73814172D02*
X104999999Y73885600D01*
X104999999Y73885600D02*
X104928570Y73957029D01*
X104928570Y73957029D02*
X104857142Y74099886D01*
X104857142Y74099886D02*
X104857142Y74528458D01*
X104857142Y74528458D02*
X104928570Y74671315D01*
X104928570Y74671315D02*
X104999999Y74742743D01*
X104999999Y74742743D02*
X105142856Y74814172D01*
X105142856Y74814172D02*
X105428570Y74814172D01*
X105428570Y74814172D02*
X105571428Y74742743D01*
X106928571Y74814172D02*
X106928571Y73599886D01*
X106928571Y73599886D02*
X106857142Y73457029D01*
X106857142Y73457029D02*
X106785713Y73385600D01*
X106785713Y73385600D02*
X106642856Y73314172D01*
X106642856Y73314172D02*
X106428571Y73314172D01*
X106428571Y73314172D02*
X106285713Y73385600D01*
X106928571Y73885600D02*
X106785713Y73814172D01*
X106785713Y73814172D02*
X106499999Y73814172D01*
X106499999Y73814172D02*
X106357142Y73885600D01*
X106357142Y73885600D02*
X106285713Y73957029D01*
X106285713Y73957029D02*
X106214285Y74099886D01*
X106214285Y74099886D02*
X106214285Y74528458D01*
X106214285Y74528458D02*
X106285713Y74671315D01*
X106285713Y74671315D02*
X106357142Y74742743D01*
X106357142Y74742743D02*
X106499999Y74814172D01*
X106499999Y74814172D02*
X106785713Y74814172D01*
X106785713Y74814172D02*
X106928571Y74742743D01*
X108214285Y73885600D02*
X108071428Y73814172D01*
X108071428Y73814172D02*
X107785714Y73814172D01*
X107785714Y73814172D02*
X107642856Y73885600D01*
X107642856Y73885600D02*
X107571428Y74028458D01*
X107571428Y74028458D02*
X107571428Y74599886D01*
X107571428Y74599886D02*
X107642856Y74742743D01*
X107642856Y74742743D02*
X107785714Y74814172D01*
X107785714Y74814172D02*
X108071428Y74814172D01*
X108071428Y74814172D02*
X108214285Y74742743D01*
X108214285Y74742743D02*
X108285714Y74599886D01*
X108285714Y74599886D02*
X108285714Y74457029D01*
X108285714Y74457029D02*
X107571428Y74314172D01*
X108857142Y73885600D02*
X108999999Y73814172D01*
X108999999Y73814172D02*
X109285713Y73814172D01*
X109285713Y73814172D02*
X109428570Y73885600D01*
X109428570Y73885600D02*
X109499999Y74028458D01*
X109499999Y74028458D02*
X109499999Y74099886D01*
X109499999Y74099886D02*
X109428570Y74242743D01*
X109428570Y74242743D02*
X109285713Y74314172D01*
X109285713Y74314172D02*
X109071428Y74314172D01*
X109071428Y74314172D02*
X108928570Y74385600D01*
X108928570Y74385600D02*
X108857142Y74528458D01*
X108857142Y74528458D02*
X108857142Y74599886D01*
X108857142Y74599886D02*
X108928570Y74742743D01*
X108928570Y74742743D02*
X109071428Y74814172D01*
X109071428Y74814172D02*
X109285713Y74814172D01*
X109285713Y74814172D02*
X109428570Y74742743D01*
D12*
%TO.P,RCA10,2,Ext*%
%TO.N,GNDA*%
X231100000Y45500000D03*
%TO.P,RCA10,1,In*%
%TO.N,Net-(K5-Pad7)*%
X228600000Y45500000D03*
D13*
%TO.P,RCA10,*%
%TO.N,*%
X233650000Y50550000D03*
X223550000Y40450000D03*
%TD*%
%TO.P,RCA3,*%
%TO.N,*%
X72950000Y15950000D03*
X83050000Y26050000D03*
D12*
%TO.P,RCA3,1,In*%
%TO.N,Net-(K3-Pad3)*%
X78000000Y21000000D03*
%TO.P,RCA3,2,Ext*%
%TO.N,GNDA*%
X80500000Y21000000D03*
%TD*%
D13*
%TO.P,RCA6,*%
%TO.N,*%
X47450000Y34150000D03*
X57550000Y44250000D03*
D12*
%TO.P,RCA6,1,In*%
%TO.N,Net-(K2-Pad8)*%
X52500000Y39200000D03*
%TO.P,RCA6,2,Ext*%
%TO.N,GNDA*%
X55000000Y39200000D03*
%TD*%
D13*
%TO.P,RCA8,*%
%TO.N,*%
X98450000Y34150000D03*
X108550000Y44250000D03*
D12*
%TO.P,RCA8,1,In*%
%TO.N,Net-(K4-Pad8)*%
X103500000Y39200000D03*
%TO.P,RCA8,2,Ext*%
%TO.N,GNDA*%
X106000000Y39200000D03*
%TD*%
D13*
%TO.P,RCA1,*%
%TO.N,*%
X21950000Y15950000D03*
X32050000Y26050000D03*
D12*
%TO.P,RCA1,1,In*%
%TO.N,Net-(K1-Pad3)*%
X27000000Y21000000D03*
%TO.P,RCA1,2,Ext*%
%TO.N,GNDA*%
X29500000Y21000000D03*
%TD*%
D13*
%TO.P,RCA5,*%
%TO.N,*%
X21950000Y34150000D03*
X32050000Y44250000D03*
D12*
%TO.P,RCA5,1,In*%
%TO.N,Net-(K1-Pad8)*%
X27000000Y39200000D03*
%TO.P,RCA5,2,Ext*%
%TO.N,GNDA*%
X29500000Y39200000D03*
%TD*%
D13*
%TO.P,RCA4,*%
%TO.N,*%
X98450000Y15950000D03*
X108550000Y26050000D03*
D12*
%TO.P,RCA4,1,In*%
%TO.N,Net-(K4-Pad3)*%
X103500000Y21000000D03*
%TO.P,RCA4,2,Ext*%
%TO.N,GNDA*%
X106000000Y21000000D03*
%TD*%
D13*
%TO.P,RCA7,*%
%TO.N,*%
X72950000Y34150000D03*
X83050000Y44250000D03*
D12*
%TO.P,RCA7,1,In*%
%TO.N,Net-(K3-Pad8)*%
X78000000Y39200000D03*
%TO.P,RCA7,2,Ext*%
%TO.N,GNDA*%
X80500000Y39200000D03*
%TD*%
D13*
%TO.P,RCA2,*%
%TO.N,*%
X47450000Y15950000D03*
X57550000Y26050000D03*
D12*
%TO.P,RCA2,1,In*%
%TO.N,Net-(K2-Pad3)*%
X52500000Y21000000D03*
%TO.P,RCA2,2,Ext*%
%TO.N,GNDA*%
X55000000Y21000000D03*
%TD*%
D13*
%TO.P,RCA9,*%
%TO.N,*%
X223550000Y10450000D03*
X233650000Y20550000D03*
D12*
%TO.P,RCA9,1,In*%
%TO.N,Net-(K5-Pad4)*%
X228600000Y15500000D03*
%TO.P,RCA9,2,Ext*%
%TO.N,GNDA*%
X231100000Y15500000D03*
%TD*%
D14*
%TO.P,K4,1,1*%
%TO.N,+12V*%
X98400000Y49000000D03*
D15*
%TO.P,K4,2,2*%
%TO.N,unconnected-(K4-Pad2)*%
X100940000Y49000000D03*
%TO.P,K4,3,3*%
%TO.N,Net-(K4-Pad3)*%
X103480000Y49000000D03*
%TO.P,K4,4,4*%
%TO.N,Audio L*%
X106020000Y49000000D03*
%TO.P,K4,5,5*%
%TO.N,unconnected-(K4-Pad5)*%
X108560000Y49000000D03*
%TO.P,K4,6,6*%
%TO.N,unconnected-(K4-Pad6)*%
X108560000Y56620000D03*
%TO.P,K4,7,7*%
%TO.N,Audio R*%
X106020000Y56620000D03*
%TO.P,K4,8,8*%
%TO.N,Net-(K4-Pad8)*%
X103480000Y56620000D03*
%TO.P,K4,9,9*%
%TO.N,unconnected-(K4-Pad9)*%
X100940000Y56620000D03*
%TO.P,K4,10,10*%
%TO.N,RELAY4*%
X98400000Y56620000D03*
%TD*%
D14*
%TO.P,K2,1,1*%
%TO.N,+12V*%
X47400000Y49000000D03*
D15*
%TO.P,K2,2,2*%
%TO.N,unconnected-(K2-Pad2)*%
X49940000Y49000000D03*
%TO.P,K2,3,3*%
%TO.N,Net-(K2-Pad3)*%
X52480000Y49000000D03*
%TO.P,K2,4,4*%
%TO.N,Audio L*%
X55020000Y49000000D03*
%TO.P,K2,5,5*%
%TO.N,unconnected-(K2-Pad5)*%
X57560000Y49000000D03*
%TO.P,K2,6,6*%
%TO.N,unconnected-(K2-Pad6)*%
X57560000Y56620000D03*
%TO.P,K2,7,7*%
%TO.N,Audio R*%
X55020000Y56620000D03*
%TO.P,K2,8,8*%
%TO.N,Net-(K2-Pad8)*%
X52480000Y56620000D03*
%TO.P,K2,9,9*%
%TO.N,unconnected-(K2-Pad9)*%
X49940000Y56620000D03*
%TO.P,K2,10,10*%
%TO.N,RELAY2*%
X47400000Y56620000D03*
%TD*%
D14*
%TO.P,K1,1,1*%
%TO.N,+12V*%
X21900000Y49000000D03*
D15*
%TO.P,K1,2,2*%
%TO.N,unconnected-(K1-Pad2)*%
X24440000Y49000000D03*
%TO.P,K1,3,3*%
%TO.N,Net-(K1-Pad3)*%
X26980000Y49000000D03*
%TO.P,K1,4,4*%
%TO.N,Audio L*%
X29520000Y49000000D03*
%TO.P,K1,5,5*%
%TO.N,unconnected-(K1-Pad5)*%
X32060000Y49000000D03*
%TO.P,K1,6,6*%
%TO.N,unconnected-(K1-Pad6)*%
X32060000Y56620000D03*
%TO.P,K1,7,7*%
%TO.N,Audio R*%
X29520000Y56620000D03*
%TO.P,K1,8,8*%
%TO.N,Net-(K1-Pad8)*%
X26980000Y56620000D03*
%TO.P,K1,9,9*%
%TO.N,unconnected-(K1-Pad9)*%
X24440000Y56620000D03*
%TO.P,K1,10,10*%
%TO.N,RELAY1*%
X21900000Y56620000D03*
%TD*%
D14*
%TO.P,K3,1,1*%
%TO.N,+12V*%
X72900000Y49000000D03*
D15*
%TO.P,K3,2,2*%
%TO.N,unconnected-(K3-Pad2)*%
X75440000Y49000000D03*
%TO.P,K3,3,3*%
%TO.N,Net-(K3-Pad3)*%
X77980000Y49000000D03*
%TO.P,K3,4,4*%
%TO.N,Audio L*%
X80520000Y49000000D03*
%TO.P,K3,5,5*%
%TO.N,unconnected-(K3-Pad5)*%
X83060000Y49000000D03*
%TO.P,K3,6,6*%
%TO.N,unconnected-(K3-Pad6)*%
X83060000Y56620000D03*
%TO.P,K3,7,7*%
%TO.N,Audio R*%
X80520000Y56620000D03*
%TO.P,K3,8,8*%
%TO.N,Net-(K3-Pad8)*%
X77980000Y56620000D03*
%TO.P,K3,9,9*%
%TO.N,unconnected-(K3-Pad9)*%
X75440000Y56620000D03*
%TO.P,K3,10,10*%
%TO.N,RELAY3*%
X72900000Y56620000D03*
%TD*%
D14*
%TO.P,K5,1,1*%
%TO.N,+12V*%
X223220000Y26990000D03*
D15*
%TO.P,K5,2,2*%
%TO.N,unconnected-(K5-Pad2)*%
X225760000Y26990000D03*
%TO.P,K5,3,3*%
%TO.N,Audio L out*%
X228300000Y26990000D03*
%TO.P,K5,4,4*%
%TO.N,Net-(K5-Pad4)*%
X230840000Y26990000D03*
%TO.P,K5,5,5*%
%TO.N,unconnected-(K5-Pad5)*%
X233380000Y26990000D03*
%TO.P,K5,6,6*%
%TO.N,unconnected-(K5-Pad6)*%
X233380000Y34610000D03*
%TO.P,K5,7,7*%
%TO.N,Net-(K5-Pad7)*%
X230840000Y34610000D03*
%TO.P,K5,8,8*%
%TO.N,Audio R out*%
X228300000Y34610000D03*
%TO.P,K5,9,9*%
%TO.N,unconnected-(K5-Pad9)*%
X225760000Y34610000D03*
%TO.P,K5,10,10*%
%TO.N,RELAY5*%
X223220000Y34610000D03*
%TD*%
D16*
%TO.P,J3,1,Pin_1*%
%TO.N,I2C:SDA*%
X35550000Y4275000D03*
D17*
%TO.P,J3,2,Pin_2*%
%TO.N,I2C:SCL*%
X38050000Y4275000D03*
%TO.P,J3,3,Pin_3*%
%TO.N,GND*%
X40550000Y4275000D03*
%TO.P,J3,4,Pin_4*%
%TO.N,+3V3*%
X43050000Y4275000D03*
%TO.P,J3,5,Pin_5*%
%TO.N,SPI:SCK*%
X45550000Y4275000D03*
%TO.P,J3,6,Pin_6*%
%TO.N,SPI:MISO*%
X48050000Y4275000D03*
%TO.P,J3,7,Pin_7*%
%TO.N,SPI:MOSI*%
X50550000Y4275000D03*
%TO.P,J3,8,Pin_8*%
%TO.N,SPI:SS*%
X53050000Y4275000D03*
%TD*%
D18*
%TO.P,R2,1*%
%TO.N,Audio L out*%
X130310000Y34000000D03*
D19*
%TO.P,R2,2*%
%TO.N,Audio L*%
X122690000Y34000000D03*
%TD*%
D20*
%TO.P,J8,1,Pin_1*%
%TO.N,A0*%
X214900000Y15600000D03*
D21*
%TO.P,J8,2,Pin_2*%
%TO.N,GND*%
X212400000Y15600000D03*
%TD*%
D16*
%TO.P,J5,1,Pin_1*%
%TO.N,+15V*%
X5600000Y4700000D03*
D17*
%TO.P,J5,2,Pin_2*%
%TO.N,GNDA*%
X8100000Y4700000D03*
%TO.P,J5,3,Pin_3*%
%TO.N,-15V*%
X10600000Y4700000D03*
%TO.P,J5,4,Pin_4*%
%TO.N,+12V*%
X13100000Y4700000D03*
%TO.P,J5,5,Pin_5*%
%TO.N,GND*%
X15600000Y4700000D03*
%TD*%
D22*
%TO.P,J7,1,Pin_1*%
%TO.N,+3V3*%
X206600000Y3860000D03*
D23*
%TO.P,J7,2,Pin_2*%
%TO.N,GND*%
X206600000Y6400000D03*
%TO.P,J7,3,Pin_3*%
%TO.N,I2C:SCL*%
X206600000Y8940000D03*
%TO.P,J7,4,Pin_4*%
%TO.N,I2C:SDA*%
X206600000Y11480000D03*
%TO.P,J7,5,Pin_5*%
%TO.N,GND*%
X206600000Y14020000D03*
%TO.P,J7,6,Pin_6*%
%TO.N,unconnected-(J7-Pad6)*%
X206600000Y16560000D03*
%TO.P,J7,7,Pin_7*%
%TO.N,A0*%
X206600000Y19100000D03*
%TO.P,J7,8,Pin_8*%
%TO.N,A1*%
X206600000Y21640000D03*
%TO.P,J7,9,Pin_9*%
%TO.N,unconnected-(J7-Pad9)*%
X206600000Y24180000D03*
%TO.P,J7,10,Pin_10*%
%TO.N,unconnected-(J7-Pad10)*%
X206600000Y26720000D03*
%TD*%
D18*
%TO.P,R1,1*%
%TO.N,Audio R out*%
X130400000Y39100000D03*
D19*
%TO.P,R1,2*%
%TO.N,Audio R*%
X122780000Y39100000D03*
%TD*%
D22*
%TO.P,J1,1,Pin_1*%
%TO.N,Audio R*%
X65000000Y39000000D03*
D23*
%TO.P,J1,2,Pin_2*%
%TO.N,GNDA*%
X65000000Y36460000D03*
%TO.P,J1,3,Pin_3*%
%TO.N,Audio L*%
X65000000Y33920000D03*
%TD*%
D22*
%TO.P,J6,1,Pin_1*%
%TO.N,+15V*%
X65000000Y54000000D03*
D23*
%TO.P,J6,2,Pin_2*%
%TO.N,GNDA*%
X65000000Y51460000D03*
%TO.P,J6,3,Pin_3*%
%TO.N,-15V*%
X65000000Y48920000D03*
%TO.P,J6,4,Pin_4*%
%TO.N,+12V*%
X65000000Y46380000D03*
%TO.P,J6,5,Pin_5*%
%TO.N,GND*%
X65000000Y43840000D03*
%TD*%
D22*
%TO.P,J2,1,Pin_1*%
%TO.N,Audio R out*%
X195000000Y39000000D03*
D23*
%TO.P,J2,2,Pin_2*%
%TO.N,GNDA*%
X195000000Y36460000D03*
%TO.P,J2,3,Pin_3*%
%TO.N,Audio L out*%
X195000000Y33920000D03*
%TD*%
D20*
%TO.P,J9,1,Pin_1*%
%TO.N,A1*%
X214900000Y25600000D03*
D21*
%TO.P,J9,2,Pin_2*%
%TO.N,GND*%
X212400000Y25600000D03*
%TD*%
D22*
%TO.P,J4,1,Pin_1*%
%TO.N,I2C:SDA*%
X65000000Y29000000D03*
D23*
%TO.P,J4,2,Pin_2*%
%TO.N,I2C:SCL*%
X65000000Y26460000D03*
%TO.P,J4,3,Pin_3*%
%TO.N,GND*%
X65000000Y23920000D03*
%TO.P,J4,4,Pin_4*%
%TO.N,+3V3*%
X65000000Y21380000D03*
%TO.P,J4,5,Pin_5*%
%TO.N,SPI:SCK*%
X65000000Y18840000D03*
%TO.P,J4,6,Pin_6*%
%TO.N,SPI:MISO*%
X65000000Y16300000D03*
%TO.P,J4,7,Pin_7*%
%TO.N,SPI:MOSI*%
X65000000Y13760000D03*
%TO.P,J4,8,Pin_8*%
%TO.N,SPI:SS*%
X65000000Y11220000D03*
%TD*%
D24*
%TO.N,GND*%
X69020000Y43780000D03*
X4600000Y30300000D03*
X15600000Y2000000D03*
X9700000Y30300000D03*
%TD*%
D25*
%TO.N,GND*%
X4600000Y9720000D02*
X4600000Y30300000D01*
X9700000Y30300000D02*
X4600000Y30300000D01*
X15600000Y6275000D02*
X13095000Y8780000D01*
X40550000Y4275000D02*
X38275000Y2000000D01*
X38275000Y2000000D02*
X15600000Y2000000D01*
X68960000Y43840000D02*
X69020000Y43780000D01*
X15600000Y4700000D02*
X15600000Y6275000D01*
X65160000Y44000000D02*
X65000000Y43840000D01*
X5540000Y8780000D02*
X4600000Y9720000D01*
X65000000Y43840000D02*
X68960000Y43840000D01*
X13095000Y8780000D02*
X5540000Y8780000D01*
%TO.N,I2C:SCL*%
X62980000Y24440000D02*
X62980000Y21580000D01*
X68940000Y8940000D02*
X206600000Y8940000D01*
X65000000Y26460000D02*
X62980000Y24440000D01*
X68900000Y8900000D02*
X68940000Y8940000D01*
X62980000Y21580000D02*
X53099520Y11699520D01*
X66649511Y25510489D02*
X66649511Y11150489D01*
X65300000Y26860000D02*
X66649511Y25510489D01*
X45474520Y11699520D02*
X53099520Y11699520D01*
X66649511Y11150489D02*
X68900000Y8900000D01*
X38050000Y4275000D02*
X45474520Y11699520D01*
%TO.N,Audio L*%
X53845489Y47425489D02*
X55020000Y48600000D01*
X80520000Y49000000D02*
X73670000Y42150000D01*
X29520000Y48600000D02*
X30694511Y47425489D01*
X104260000Y47240000D02*
X82280000Y47240000D01*
X69120000Y29800000D02*
X118490000Y29800000D01*
X55020000Y49000000D02*
X56570000Y47450000D01*
X118490000Y29800000D02*
X122690000Y34000000D01*
X63810000Y42150000D02*
X58510000Y47450000D01*
X30694511Y47425489D02*
X53845489Y47425489D01*
X73670000Y42150000D02*
X63810000Y42150000D01*
X65000000Y33920000D02*
X69120000Y29800000D01*
X82280000Y47240000D02*
X80520000Y49000000D01*
X58510000Y47450000D02*
X56570000Y47450000D01*
X106020000Y49000000D02*
X104260000Y47240000D01*
%TO.N,Audio R*%
X56650000Y54990000D02*
X62700000Y54990000D01*
X66730000Y55890000D02*
X67700000Y54920000D01*
X76800000Y41520000D02*
X120360000Y41520000D01*
X65000000Y39000000D02*
X74260000Y39000000D01*
X67700000Y54920000D02*
X67720000Y54940000D01*
X76480000Y41200000D02*
X76800000Y41520000D01*
X104340000Y54940000D02*
X106020000Y56620000D01*
X63600000Y55890000D02*
X66730000Y55890000D01*
X55020000Y56620000D02*
X53340000Y54940000D01*
X80520000Y56620000D02*
X82200000Y54940000D01*
X78840000Y54940000D02*
X80520000Y56620000D01*
X74260000Y39000000D02*
X76460000Y41200000D01*
X31200000Y54940000D02*
X29520000Y56620000D01*
X76460000Y41200000D02*
X76480000Y41200000D01*
X62700000Y54990000D02*
X63600000Y55890000D01*
X82200000Y54940000D02*
X104340000Y54940000D01*
X53340000Y54940000D02*
X31200000Y54940000D01*
X55020000Y56620000D02*
X56650000Y54990000D01*
X120360000Y41520000D02*
X122780000Y39100000D01*
X67720000Y54940000D02*
X78840000Y54940000D01*
%TO.N,GNDA*%
X195000000Y36460000D02*
X212840000Y36460000D01*
X58800000Y39200000D02*
X61540000Y36460000D01*
X106000000Y38260000D02*
X106000000Y39200000D01*
X80500000Y38310000D02*
X81930000Y36880000D01*
X55000000Y39200000D02*
X58800000Y39200000D01*
X80500000Y39200000D02*
X80500000Y38310000D01*
X115870000Y31090000D02*
X70370000Y31090000D01*
X236400000Y31100000D02*
X236400000Y40200000D01*
X29500000Y21000000D02*
X29500000Y39200000D01*
X104620000Y36880000D02*
X106000000Y38260000D01*
X121240000Y36460000D02*
X115870000Y31090000D01*
X8180000Y4700000D02*
X9880000Y3000000D01*
X70370000Y31090000D02*
X65000000Y36460000D01*
X233610000Y15500000D02*
X231100000Y15500000D01*
X55000000Y39079359D02*
X55000000Y39200000D01*
X55000000Y39200000D02*
X55000000Y37610000D01*
X236400000Y18290000D02*
X233610000Y15500000D01*
X55000000Y39200000D02*
X55000000Y21000000D01*
X29500000Y5200000D02*
X29500000Y21000000D01*
X212840000Y36460000D02*
X218200000Y31100000D01*
X81930000Y36880000D02*
X104620000Y36880000D01*
X80500000Y37340000D02*
X80080000Y36920000D01*
X236400000Y40200000D02*
X231100000Y45500000D01*
X54040000Y41510000D02*
X31810000Y41510000D01*
X61540000Y36460000D02*
X65000000Y36460000D01*
X8100000Y4700000D02*
X8180000Y4700000D01*
X27300000Y3000000D02*
X29500000Y5200000D01*
X218200000Y31100000D02*
X236400000Y31100000D01*
X236400000Y31100000D02*
X236400000Y18290000D01*
X31810000Y41510000D02*
X29500000Y39200000D01*
X55000000Y39200000D02*
X55000000Y37870000D01*
X65460000Y36920000D02*
X65000000Y36460000D01*
X80080000Y36920000D02*
X65460000Y36920000D01*
X55000000Y39200000D02*
X55000000Y40550000D01*
X80500000Y39200000D02*
X80500000Y37340000D01*
X195000000Y36460000D02*
X121240000Y36460000D01*
X55000000Y40550000D02*
X54040000Y41510000D01*
X9880000Y3000000D02*
X27300000Y3000000D01*
%TO.N,+3V3*%
X43180000Y4145000D02*
X43180000Y3300000D01*
X43180000Y3300000D02*
X45470000Y1010000D01*
X49675000Y10900000D02*
X54420000Y10900000D01*
X43050000Y4275000D02*
X49675000Y10900000D01*
X45470000Y1010000D02*
X203750000Y1010000D01*
X43050000Y4275000D02*
X43180000Y4145000D01*
X203750000Y1010000D02*
X206600000Y3860000D01*
X54420000Y10900000D02*
X65300000Y21780000D01*
%TO.N,SPI:SS*%
X57955000Y4275000D02*
X65300000Y11620000D01*
X53050000Y4275000D02*
X57955000Y4275000D01*
%TO.N,SPI:MOSI*%
X57540000Y6400000D02*
X65300000Y14160000D01*
X50550000Y4275000D02*
X52675000Y6400000D01*
X52675000Y6400000D02*
X57540000Y6400000D01*
%TO.N,+12V*%
X45390000Y51010000D02*
X47400000Y49000000D01*
X65000000Y46380000D02*
X62974511Y46380000D01*
X2700000Y10030000D02*
X4830000Y7900000D01*
X58194511Y51160000D02*
X49560000Y51160000D01*
X23910000Y51010000D02*
X45390000Y51010000D01*
X21900000Y49000000D02*
X23910000Y51010000D01*
X98400000Y49000000D02*
X96150000Y51250000D01*
X13100000Y5800000D02*
X13100000Y4700000D01*
X75150000Y51250000D02*
X72900000Y49000000D01*
X3500000Y49000000D02*
X2700000Y48200000D01*
X96150000Y51250000D02*
X75150000Y51250000D01*
X62974511Y46380000D02*
X58194511Y51160000D01*
X65000000Y46380000D02*
X70280000Y46380000D01*
X21900000Y49000000D02*
X3500000Y49000000D01*
X70280000Y46380000D02*
X72900000Y49000000D01*
X47400000Y49000000D02*
X49560000Y51160000D01*
X11000000Y7900000D02*
X13100000Y5800000D01*
X4830000Y7900000D02*
X11000000Y7900000D01*
X2700000Y48200000D02*
X2700000Y10030000D01*
%TO.N,SPI:MISO*%
X56800000Y8200000D02*
X65300000Y16700000D01*
X51975000Y8200000D02*
X56800000Y8200000D01*
X48050000Y4275000D02*
X51975000Y8200000D01*
%TO.N,SPI:SCK*%
X50975000Y9700000D02*
X55760000Y9700000D01*
X45550000Y4275000D02*
X50975000Y9700000D01*
X55760000Y9700000D02*
X65300000Y19240000D01*
%TO.N,A0*%
X214900000Y19100000D02*
X214900000Y15600000D01*
X206600000Y19100000D02*
X214900000Y19100000D01*
%TO.N,I2C:SDA*%
X62155000Y26155000D02*
X62155000Y21955000D01*
X35550000Y4275000D02*
X43774040Y12499040D01*
X43774040Y12499040D02*
X52699040Y12499040D01*
X68635000Y12810000D02*
X68635000Y25365000D01*
X68635000Y25365000D02*
X65000000Y29000000D01*
X65000000Y29000000D02*
X62155000Y26155000D01*
X69965000Y11480000D02*
X206600000Y11480000D01*
X62155000Y21955000D02*
X61400000Y21200000D01*
X52699040Y12499040D02*
X61400000Y21200000D01*
X68635000Y12810000D02*
X69965000Y11480000D01*
%TO.N,A1*%
X206600000Y21640000D02*
X214840000Y21640000D01*
X214840000Y21640000D02*
X214900000Y21700000D01*
X214900000Y21700000D02*
X214900000Y25600000D01*
%TO.N,Audio R out*%
X130400000Y39100000D02*
X194900000Y39100000D01*
X195000000Y39000000D02*
X213100000Y39000000D01*
X213100000Y39000000D02*
X219300000Y32800000D01*
X226490000Y32800000D02*
X228300000Y34610000D01*
X219300000Y32800000D02*
X226490000Y32800000D01*
X194900000Y39100000D02*
X195000000Y39000000D01*
%TO.N,Audio L out*%
X195000000Y33920000D02*
X212680000Y33920000D01*
X225590000Y29700000D02*
X228300000Y26990000D01*
X130310000Y34000000D02*
X194920000Y34000000D01*
X216900000Y29700000D02*
X225590000Y29700000D01*
X212680000Y33920000D02*
X216900000Y29700000D01*
X194920000Y34000000D02*
X195000000Y33920000D01*
%TO.N,Net-(K5-Pad4)*%
X228600000Y24750000D02*
X228600000Y15500000D01*
X230840000Y26990000D02*
X228600000Y24750000D01*
%TO.N,Net-(K5-Pad7)*%
X230840000Y34610000D02*
X228600000Y36850000D01*
X228600000Y36850000D02*
X228600000Y45500000D01*
%TO.N,+15V*%
X1000000Y9300000D02*
X5600000Y4700000D01*
X2000000Y54000000D02*
X1000000Y53000000D01*
X1000000Y53000000D02*
X1000000Y9300000D01*
X65000000Y54000000D02*
X2000000Y54000000D01*
%TO.N,-15V*%
X60719520Y53200480D02*
X2331172Y53200480D01*
X10600000Y4700000D02*
X10600000Y5780000D01*
X4330692Y7100000D02*
X9280000Y7100000D01*
X65000000Y48920000D02*
X60719520Y53200480D01*
X1799520Y9631172D02*
X4330692Y7100000D01*
X10600000Y5780000D02*
X9280000Y7100000D01*
X2331172Y53200480D02*
X1799520Y52668828D01*
X1799520Y52668828D02*
X1799520Y9631172D01*
%TD*%
M02*
