M48
INCH
T1C0.0157
T2C0.0315
T3C0.0354
T4C0.0374
T5C0.0394
T6C0.0787
%
G90
G05
T1
X0.1811Y1.1929
X0.3819Y1.1929
X0.6142Y0.0787
X2.7173Y1.7236
T2
X4.8303Y1.3386
X4.8339Y1.5394
X5.1303Y1.3386
X5.1339Y1.5394
T3
X0.8622Y2.2291
X0.8622Y1.9291
X0.9622Y2.2291
X0.9622Y1.9291
X1.0622Y2.2291
X1.0622Y1.9291
X1.1622Y2.2291
X1.1622Y1.9291
X1.2622Y2.2291
X1.2622Y1.9291
X1.8661Y2.2291
X1.8661Y1.9291
X1.9661Y2.2291
X1.9661Y1.9291
X2.0661Y2.2291
X2.0661Y1.9291
X2.1661Y2.2291
X2.1661Y1.9291
X2.2661Y2.2291
X2.2661Y1.9291
X2.8701Y2.2291
X2.8701Y1.9291
X2.9701Y2.2291
X2.9701Y1.9291
X3.0701Y2.2291
X3.0701Y1.9291
X3.1701Y2.2291
X3.1701Y1.9291
X3.2701Y2.2291
X3.2701Y1.9291
X3.874Y2.2291
X3.874Y1.9291
X3.974Y2.2291
X3.974Y1.9291
X4.074Y2.2291
X4.074Y1.9291
X4.174Y2.2291
X4.174Y1.9291
X4.274Y2.2291
X4.274Y1.9291
X8.7882Y1.3626
X8.7882Y1.0626
X8.8882Y1.3626
X8.8882Y1.0626
X8.9882Y1.3626
X8.9882Y1.0626
X9.0882Y1.3626
X9.0882Y1.0626
X9.1882Y1.3626
X9.1882Y1.0626
T4
X0.2205Y0.185
X0.3189Y0.185
X0.4173Y0.185
X0.5157Y0.185
X0.6142Y0.185
X1.3996Y0.1683
X1.498Y0.1683
X1.5965Y0.1683
X1.6949Y0.1683
X1.7933Y0.1683
X1.8917Y0.1683
X1.9902Y0.1683
X2.0886Y0.1683
T5
X1.063Y1.5433
X1.063Y0.8268
X1.1614Y1.5433
X1.1614Y0.8268
X2.0669Y1.5433
X2.0669Y0.8268
X2.1654Y1.5433
X2.1654Y0.8268
X2.5591Y2.126
X2.5591Y2.026
X2.5591Y1.926
X2.5591Y1.826
X2.5591Y1.726
X2.5591Y1.5354
X2.5591Y1.4354
X2.5591Y1.3354
X2.5591Y1.1417
X2.5591Y1.0417
X2.5591Y0.9417
X2.5591Y0.8417
X2.5591Y0.7417
X2.5591Y0.6417
X2.5591Y0.5417
X2.5591Y0.4417
X3.0709Y1.5433
X3.0709Y0.8268
X3.1693Y1.5433
X3.1693Y0.8268
X4.0748Y1.5433
X4.0748Y0.8268
X4.1732Y1.5433
X4.1732Y0.8268
X7.6772Y1.5354
X7.6772Y1.4354
X7.6772Y1.3354
X8.1339Y1.052
X8.1339Y0.952
X8.1339Y0.852
X8.1339Y0.752
X8.1339Y0.652
X8.1339Y0.552
X8.1339Y0.452
X8.1339Y0.352
X8.1339Y0.252
X8.1339Y0.152
X8.3622Y1.0079
X8.3622Y0.6142
X8.4606Y1.0079
X8.4606Y0.6142
X9.0Y1.7913
X9.0Y0.6102
X9.0984Y1.7913
X9.0984Y0.6102
T6
X0.8642Y1.3445
X0.8642Y0.628
X1.2618Y1.7421
X1.2618Y1.0256
X1.8681Y1.3445
X1.8681Y0.628
X2.2657Y1.7421
X2.2657Y1.0256
X2.872Y1.3445
X2.872Y0.628
X3.2697Y1.7421
X3.2697Y1.0256
X3.876Y1.3445
X3.876Y0.628
X4.2736Y1.7421
X4.2736Y1.0256
X8.8012Y1.5925
X8.8012Y0.4114
X9.1988Y1.9902
X9.1988Y0.8091
M30
